<?xml version="1.0" standalone="no"?><!DOCTYPE svg PUBLIC "-//W3C//DTD SVG 1.1//EN" "http://www.w3.org/Graphics/SVG/1.1/DTD/svg11.dtd"><svg t="1586005588001" class="icon" viewBox="0 0 1479 1024" version="1.1" xmlns="http://www.w3.org/2000/svg" p-id="1376" xmlns:xlink="http://www.w3.org/1999/xlink" width="128" height="128"><defs><style type="text/css"></style></defs><path d="M607.175111 13.425778c37.432889 0 69.973333 27.875556 78.734222 67.413333l198.826667 900.266667h-194.787556L534.528 277.276444l-156.273778 323.811556h96.085334l35.271111 159.857778H301.112889l-106.268445 220.16H0L467.228444 13.425778h139.946667z m614.968889 0c72.135111 0 152.177778 30.264889 199.281778 85.333333 50.801778 59.164444 59.733333 141.880889 49.265778 226.759111-13.767111 111.900444-80.839111 202.24-169.870223 247.466667l120.263111 408.120889h-205.710222l-110.592-375.125334-154.680889 3.470223-41.813333-179.370667h248.32c54.272 0 99.726222-64.113778 107.918222-127.601778 4.209778-32.483556-7.509333-66.673778-20.252444-82.033778-12.686222-15.416889-28.273778-32.312889-48.924445-32.312888h-343.552l-40.789333-174.648889h411.079111z" p-id="1377" fill="#7ccbf4"></path></svg>